<?xml version="1.0" standalone="no"?>
<svg xmlns:xlink="http://www.w3.org/1999/xlink" id="wave" style="transform:rotate(0deg); transition: 0.3s" viewBox="0 0 1440 490" version="1.1" xmlns="http://www.w3.org/2000/svg"><defs><linearGradient id="sw-gradient-0" x1="0" x2="0" y1="1" y2="0"><stop stop-color="rgba(243, 106, 62, 1)" offset="0%"/><stop stop-color="rgba(255, 179, 11, 1)" offset="100%"/></linearGradient></defs><path style="transform:translate(0, 0px); opacity:1" fill="url(#sw-gradient-0)" d="M0,441L12.6,367.5C25.3,294,51,147,76,81.7C101.1,16,126,33,152,89.8C176.8,147,202,245,227,253.2C252.6,261,278,180,303,163.3C328.4,147,354,196,379,220.5C404.2,245,429,245,455,220.5C480,196,505,147,531,130.7C555.8,114,581,131,606,163.3C631.6,196,657,245,682,294C707.4,343,733,392,758,343C783.2,294,808,147,834,130.7C858.9,114,884,229,909,269.5C934.7,310,960,278,985,253.2C1010.5,229,1036,212,1061,196C1086.3,180,1112,163,1137,179.7C1162.1,196,1187,245,1213,245C1237.9,245,1263,196,1288,163.3C1313.7,131,1339,114,1364,130.7C1389.5,147,1415,196,1440,253.2C1465.3,310,1491,376,1516,351.2C1541.1,327,1566,212,1592,155.2C1616.8,98,1642,98,1667,130.7C1692.6,163,1718,229,1743,269.5C1768.4,310,1794,327,1806,334.8L1818.9,343L1818.9,490L1806.3,490C1793.7,490,1768,490,1743,490C1717.9,490,1693,490,1667,490C1642.1,490,1617,490,1592,490C1566.3,490,1541,490,1516,490C1490.5,490,1465,490,1440,490C1414.7,490,1389,490,1364,490C1338.9,490,1314,490,1288,490C1263.2,490,1238,490,1213,490C1187.4,490,1162,490,1137,490C1111.6,490,1086,490,1061,490C1035.8,490,1011,490,985,490C960,490,935,490,909,490C884.2,490,859,490,834,490C808.4,490,783,490,758,490C732.6,490,707,490,682,490C656.8,490,632,490,606,490C581.1,490,556,490,531,490C505.3,490,480,490,455,490C429.5,490,404,490,379,490C353.7,490,328,490,303,490C277.9,490,253,490,227,490C202.1,490,177,490,152,490C126.3,490,101,490,76,490C50.5,490,25,490,13,490L0,490Z"/><defs><linearGradient id="sw-gradient-1" x1="0" x2="0" y1="1" y2="0"><stop stop-color="rgba(243, 106, 62, 1)" offset="0%"/><stop stop-color="rgba(255, 179, 11, 1)" offset="100%"/></linearGradient></defs><path style="transform:translate(0, 50px); opacity:0.9" fill="url(#sw-gradient-1)" d="M0,49L12.6,65.3C25.3,82,51,114,76,147C101.1,180,126,212,152,236.8C176.8,261,202,278,227,236.8C252.6,196,278,98,303,81.7C328.4,65,354,131,379,171.5C404.2,212,429,229,455,253.2C480,278,505,310,531,294C555.8,278,581,212,606,187.8C631.6,163,657,180,682,171.5C707.4,163,733,131,758,155.2C783.2,180,808,261,834,318.5C858.9,376,884,408,909,416.5C934.7,425,960,408,985,383.8C1010.5,359,1036,327,1061,326.7C1086.3,327,1112,359,1137,318.5C1162.1,278,1187,163,1213,114.3C1237.9,65,1263,82,1288,147C1313.7,212,1339,327,1364,375.7C1389.5,425,1415,408,1440,359.3C1465.3,310,1491,229,1516,212.3C1541.1,196,1566,245,1592,253.2C1616.8,261,1642,229,1667,179.7C1692.6,131,1718,65,1743,40.8C1768.4,16,1794,33,1806,40.8L1818.9,49L1818.9,490L1806.3,490C1793.7,490,1768,490,1743,490C1717.9,490,1693,490,1667,490C1642.1,490,1617,490,1592,490C1566.3,490,1541,490,1516,490C1490.5,490,1465,490,1440,490C1414.7,490,1389,490,1364,490C1338.9,490,1314,490,1288,490C1263.2,490,1238,490,1213,490C1187.4,490,1162,490,1137,490C1111.6,490,1086,490,1061,490C1035.8,490,1011,490,985,490C960,490,935,490,909,490C884.2,490,859,490,834,490C808.4,490,783,490,758,490C732.6,490,707,490,682,490C656.8,490,632,490,606,490C581.1,490,556,490,531,490C505.3,490,480,490,455,490C429.5,490,404,490,379,490C353.7,490,328,490,303,490C277.9,490,253,490,227,490C202.1,490,177,490,152,490C126.3,490,101,490,76,490C50.5,490,25,490,13,490L0,490Z"/><defs><linearGradient id="sw-gradient-2" x1="0" x2="0" y1="1" y2="0"><stop stop-color="rgba(243, 106, 62, 1)" offset="0%"/><stop stop-color="rgba(255, 179, 11, 1)" offset="100%"/></linearGradient></defs><path style="transform:translate(0, 100px); opacity:0.8" fill="url(#sw-gradient-2)" d="M0,441L12.6,383.8C25.3,327,51,212,76,187.8C101.1,163,126,229,152,236.8C176.8,245,202,196,227,179.7C252.6,163,278,180,303,179.7C328.4,180,354,163,379,196C404.2,229,429,310,455,310.3C480,310,505,229,531,236.8C555.8,245,581,343,606,326.7C631.6,310,657,180,682,163.3C707.4,147,733,245,758,310.3C783.2,376,808,408,834,424.7C858.9,441,884,441,909,416.5C934.7,392,960,343,985,302.2C1010.5,261,1036,229,1061,220.5C1086.3,212,1112,229,1137,196C1162.1,163,1187,82,1213,114.3C1237.9,147,1263,294,1288,334.8C1313.7,376,1339,310,1364,261.3C1389.5,212,1415,180,1440,196C1465.3,212,1491,278,1516,253.2C1541.1,229,1566,114,1592,106.2C1616.8,98,1642,196,1667,212.3C1692.6,229,1718,163,1743,163.3C1768.4,163,1794,229,1806,261.3L1818.9,294L1818.9,490L1806.3,490C1793.7,490,1768,490,1743,490C1717.9,490,1693,490,1667,490C1642.1,490,1617,490,1592,490C1566.3,490,1541,490,1516,490C1490.5,490,1465,490,1440,490C1414.7,490,1389,490,1364,490C1338.9,490,1314,490,1288,490C1263.2,490,1238,490,1213,490C1187.4,490,1162,490,1137,490C1111.6,490,1086,490,1061,490C1035.8,490,1011,490,985,490C960,490,935,490,909,490C884.2,490,859,490,834,490C808.4,490,783,490,758,490C732.6,490,707,490,682,490C656.8,490,632,490,606,490C581.1,490,556,490,531,490C505.3,490,480,490,455,490C429.5,490,404,490,379,490C353.7,490,328,490,303,490C277.9,490,253,490,227,490C202.1,490,177,490,152,490C126.3,490,101,490,76,490C50.5,490,25,490,13,490L0,490Z"/></svg>